<svg width="29" height="30" viewBox="0 0 29 30" fill="none" xmlns="http://www.w3.org/2000/svg">
<path d="M10.1565 2.20903C10.3369 2.07601 10.5689 2 10.8782 2C11.136 2 11.368 2.07601 11.5742 2.20903C11.7805 2.36105 11.8578 2.53207 11.8578 2.72209V7.09264H29V12.9074H11.832V17.2779C11.832 17.4679 11.7289 17.639 11.5485 17.791C11.3422 17.943 11.1102 18 10.8525 18C10.5947 18 10.3627 17.924 10.1049 17.772L0.283553 10.4941C0.103106 10.361 0 10.19 0 10C0 9.79097 0.103106 9.61995 0.283553 9.46793L10.1565 2.20903Z" fill="white"/>
<path d="M7.14781 25.696C7.14781 27.232 5.89981 28 4.00381 28H0.0078125V19.6H3.90781C5.62381 19.6 6.67981 20.452 6.67981 21.772V21.796C6.67981 22.744 6.17581 23.272 5.57581 23.608C6.54781 23.98 7.14781 24.544 7.14781 25.672V25.696ZM4.84381 22.108V22.084C4.84381 21.532 4.41181 21.22 3.63181 21.22H1.80781V22.996H3.51181C4.32781 22.996 4.84381 22.732 4.84381 22.108ZM5.31181 25.468V25.444C5.31181 24.88 4.89181 24.532 3.94381 24.532H1.80781V26.38H4.00381C4.81981 26.38 5.31181 26.092 5.31181 25.468ZM14.008 28H12.244V27.304C11.8 27.796 11.188 28.12 10.3 28.12C9.08801 28.12 8.09197 27.424 8.09197 26.152V26.128C8.09197 24.724 9.16001 24.076 10.684 24.076C11.332 24.076 11.8 24.184 12.256 24.34V24.232C12.256 23.476 11.788 23.056 10.876 23.056C10.18 23.056 9.68801 23.188 9.10001 23.404L8.64397 22.012C9.35201 21.7 10.048 21.496 11.14 21.496C13.132 21.496 14.008 22.528 14.008 24.268V28ZM12.28 25.732V25.408C11.968 25.264 11.56 25.168 11.116 25.168C10.336 25.168 9.85601 25.48 9.85601 26.056V26.08C9.85601 26.572 10.264 26.86 10.852 26.86C11.704 26.86 12.28 26.392 12.28 25.732ZM21.2415 26.968C20.6175 27.652 19.8975 28.144 18.6135 28.144C16.6815 28.144 15.2655 26.656 15.2655 24.82V24.796C15.2655 22.96 16.6695 21.448 18.6375 21.448C19.8495 21.448 20.6055 21.856 21.2055 22.528L20.0895 23.728C19.6815 23.296 19.2735 23.02 18.6255 23.02C17.7135 23.02 17.0655 23.824 17.0655 24.772V24.796C17.0655 25.78 17.7015 26.572 18.6975 26.572C19.3095 26.572 19.7295 26.308 20.1735 25.888L21.2415 26.968ZM28.661 28H26.573L24.893 25.372L24.257 26.044V28H22.433V19.24H24.257V23.908L26.393 21.568H28.577L26.129 24.1L28.661 28Z" fill="white"/>
</svg>
