<svg width="30" height="30" viewBox="0 0 30 30" fill="none" xmlns="http://www.w3.org/2000/svg">
<path d="M12.1058 2.20903C12.2676 2.07601 12.4756 2 12.7529 2C12.984 2 13.192 2.07601 13.3769 2.20903C13.5618 2.36105 13.6311 2.53207 13.6311 2.72209V7.09264H29V12.9074H13.608V17.2779C13.608 17.4679 13.5156 17.639 13.3538 17.791C13.1689 17.943 12.9609 18 12.7298 18C12.4987 18 12.2907 17.924 12.0596 17.772L3.25422 10.4941C3.09244 10.361 3 10.19 3 10C3 9.79097 3.09244 9.61995 3.25422 9.46793L12.1058 2.20903Z" fill="white"/>
<path d="M8.148 25.696C8.148 27.232 6.9 28 5.004 28H1.008V19.6H4.908C6.624 19.6 7.68 20.452 7.68 21.772V21.796C7.68 22.744 7.176 23.272 6.576 23.608C7.548 23.98 8.148 24.544 8.148 25.672V25.696ZM5.844 22.108V22.084C5.844 21.532 5.412 21.22 4.632 21.22H2.808V22.996H4.512C5.328 22.996 5.844 22.732 5.844 22.108ZM6.312 25.468V25.444C6.312 24.88 5.892 24.532 4.944 24.532H2.808V26.38H5.004C5.82 26.38 6.312 26.092 6.312 25.468ZM15.0082 28H13.2442V27.304C12.8002 27.796 12.1882 28.12 11.3002 28.12C10.0882 28.12 9.09216 27.424 9.09216 26.152V26.128C9.09216 24.724 10.1602 24.076 11.6842 24.076C12.3322 24.076 12.8002 24.184 13.2562 24.34V24.232C13.2562 23.476 12.7882 23.056 11.8762 23.056C11.1802 23.056 10.6882 23.188 10.1002 23.404L9.64416 22.012C10.3522 21.7 11.0482 21.496 12.1402 21.496C14.1322 21.496 15.0082 22.528 15.0082 24.268V28ZM13.2802 25.732V25.408C12.9682 25.264 12.5602 25.168 12.1162 25.168C11.3362 25.168 10.8562 25.48 10.8562 26.056V26.08C10.8562 26.572 11.2642 26.86 11.8522 26.86C12.7042 26.86 13.2802 26.392 13.2802 25.732ZM22.2417 26.968C21.6177 27.652 20.8977 28.144 19.6137 28.144C17.6817 28.144 16.2657 26.656 16.2657 24.82V24.796C16.2657 22.96 17.6697 21.448 19.6377 21.448C20.8497 21.448 21.6057 21.856 22.2057 22.528L21.0897 23.728C20.6817 23.296 20.2737 23.02 19.6257 23.02C18.7137 23.02 18.0657 23.824 18.0657 24.772V24.796C18.0657 25.78 18.7017 26.572 19.6977 26.572C20.3097 26.572 20.7297 26.308 21.1737 25.888L22.2417 26.968ZM29.6612 28H27.5732L25.8932 25.372L25.2572 26.044V28H23.4332V19.24H25.2572V23.908L27.3932 21.568H29.5772L27.1292 24.1L29.6612 28Z" fill="white"/>
</svg>
