<svg width="100" height="100" viewBox="0 0 100 100" fill="none" xmlns="http://www.w3.org/2000/svg">
<path d="M84.1607 15.0188C83.6571 14.6848 83.1535 14.6848 82.6499 14.8518C78.4532 16.6886 74.0887 15.3527 71.5707 12.0131C70.3957 10.5103 69.7242 8.50657 69.7242 6.66979C69.7242 6.16886 69.5564 5.8349 69.2206 5.50094C68.8849 5.16698 68.5492 5 68.0456 5H50.9233C49.9161 5 49.2446 5.66792 49.2446 6.66979V65.9475C49.2446 66.1144 49.2446 66.1144 49.2446 66.2814C48.9089 69.287 46.5588 71.4578 43.5372 71.4578C40.3477 71.4578 37.6619 68.7861 37.6619 65.6135C37.6619 62.6079 39.8441 60.2702 42.8657 59.9362C43.705 59.7692 44.3765 59.1013 44.3765 58.2664V38.8968C44.3765 37.8949 43.705 37.227 42.6978 37.227C42.6978 37.227 42.53 37.227 42.3621 37.227C26.9185 37.8949 15 50.2514 15 65.6135C15 81.3096 27.7578 94 43.5372 94C58.3094 94 70.7314 82.6454 71.9065 68.1182C72.0743 67.9512 72.0743 67.6173 72.0743 67.4503V35.2233C75.7674 36.0582 79.6283 36.3921 83.6571 35.7242C84.4964 35.5572 85 34.8893 85 34.0544V16.3546C85 15.8537 84.6643 15.3527 84.1607 15.0188ZM81.6427 32.7186C77.7818 33.0525 74.2566 32.7186 70.7314 31.5497C70.2278 31.3827 69.7242 31.5497 69.2206 31.7167C68.717 32.0507 68.5492 32.5516 68.5492 33.0525V66.7824C68.5492 66.9493 68.5492 67.1163 68.3813 67.2833C67.542 80.3077 56.4628 90.6604 43.3693 90.6604C29.4365 90.6604 18.1894 79.4728 18.1894 65.6135C18.1894 52.5891 27.9257 41.9024 40.8513 40.7336V56.9306C36.9904 58.0994 34.1367 61.606 34.1367 65.6135C34.1367 70.6229 38.3333 74.7974 43.3693 74.7974C47.9017 74.7974 51.7626 71.4578 52.4341 67.1163C52.6019 66.9493 52.6019 66.6154 52.6019 66.4484V8.33959H66.5348C66.8705 10.5103 67.7098 12.3471 68.8849 14.0169C71.7386 17.8574 76.7746 19.8612 81.6427 18.6923V32.7186Z" fill="black"/>
</svg>
