<svg width="70" height="89" viewBox="0 0 70 89" fill="none" xmlns="http://www.w3.org/2000/svg">
<path d="M69.1607 10.0188C68.6571 9.6848 68.1535 9.6848 67.6499 9.85178C63.4532 11.6886 59.0887 10.3527 56.5707 7.01313C55.3957 5.51032 54.7242 3.50657 54.7242 1.66979C54.7242 1.16886 54.5564 0.834896 54.2206 0.500938C53.8849 0.166979 53.5492 0 53.0456 0H35.9233C34.9161 0 34.2446 0.667917 34.2446 1.66979V60.9475C34.2446 61.1144 34.2446 61.1144 34.2446 61.2814C33.9089 64.287 31.5588 66.4578 28.5372 66.4578C25.3477 66.4578 22.6619 63.7861 22.6619 60.6135C22.6619 57.6079 24.8441 55.2702 27.8657 54.9362C28.705 54.7692 29.3765 54.1013 29.3765 53.2664V33.8968C29.3765 32.8949 28.705 32.227 27.6978 32.227C27.6978 32.227 27.53 32.227 27.3621 32.227C11.9185 32.8949 0 45.2514 0 60.6135C0 76.3096 12.7578 89 28.5372 89C43.3094 89 55.7314 77.6454 56.9065 63.1182C57.0743 62.9512 57.0743 62.6173 57.0743 62.4503V30.2233C60.7674 31.0582 64.6283 31.3921 68.6571 30.7242C69.4964 30.5572 70 29.8893 70 29.0544V11.3546C70 10.8537 69.6643 10.3527 69.1607 10.0188ZM66.6427 27.7186C62.7818 28.0525 59.2566 27.7186 55.7314 26.5497C55.2278 26.3827 54.7242 26.5497 54.2206 26.7167C53.717 27.0507 53.5492 27.5516 53.5492 28.0525V61.7824C53.5492 61.9493 53.5492 62.1163 53.3813 62.2833C52.542 75.3077 41.4628 85.6604 28.3693 85.6604C14.4365 85.6604 3.18945 74.4728 3.18945 60.6135C3.18945 47.5891 12.9257 36.9024 25.8513 35.7336V51.9306C21.9904 53.0994 19.1367 56.606 19.1367 60.6135C19.1367 65.6229 23.3333 69.7974 28.3693 69.7974C32.9017 69.7974 36.7626 66.4578 37.4341 62.1163C37.6019 61.9493 37.6019 61.6154 37.6019 61.4484V3.33959H51.5348C51.8705 5.51032 52.7098 7.34709 53.8849 9.01689C56.7386 12.8574 61.7746 14.8612 66.6427 13.6923V27.7186Z" fill="black"/>
</svg>
