<svg width="90" height="71" viewBox="0 0 90 71" fill="none" xmlns="http://www.w3.org/2000/svg">
<path fillRule="evenodd" clip-rule="evenodd" d="M35.832 50.833V19.233L57.247 35.033L35.832 50.833ZM62.051 33.333L34.975 13.355C34.6608 13.1229 34.2882 12.9826 33.899 12.9499C33.5097 12.9171 33.1189 12.9931 32.7703 13.1694C32.4217 13.3456 32.1289 13.6153 31.9245 13.9482C31.7202 14.2812 31.6123 14.6643 31.613 15.055V55.014C31.6123 55.4047 31.7202 55.7878 31.9245 56.1208C32.1289 56.4537 32.4217 56.7234 32.7703 56.8996C33.1189 57.0759 33.5097 57.1519 33.899 57.1191C34.2882 57.0864 34.6608 56.9461 34.975 56.714L62.051 36.733C62.3177 36.537 62.5345 36.2809 62.6839 35.9856C62.8333 35.6903 62.9112 35.364 62.9112 35.033C62.9112 34.702 62.8333 34.3757 62.6839 34.0804C62.5345 33.7851 62.3177 33.529 62.051 33.333ZM85.781 56.783V13.283C85.7784 10.8797 84.8224 8.57564 83.1229 6.87636C81.4235 5.17707 79.1193 4.22138 76.716 4.219H13.284C10.8808 4.22165 8.57677 5.17742 6.87735 6.87665C5.17794 8.57587 4.22191 10.8798 4.219 13.283V56.783C4.22191 59.1862 5.17794 61.4901 6.87735 63.1894C8.57677 64.8886 10.8808 65.8444 13.284 65.847H76.716C79.1193 65.8446 81.4235 64.8889 83.1229 63.1896C84.8224 61.4904 85.7784 59.1863 85.781 56.783ZM76.716 0H13.284C9.76251 0.00423316 6.38643 1.40488 3.89618 3.89476C1.40592 6.38465 0.00476339 9.76051 0 13.282V56.782C0.00423425 60.3038 1.40515 63.6802 3.89547 66.1705C6.38579 68.6608 9.76216 70.0618 13.284 70.066H76.716C80.2375 70.0618 83.6136 68.6611 86.1038 66.1712C88.5941 63.6814 89.9952 60.3055 90 56.784V13.284C89.9958 9.76216 88.5948 6.38579 86.1045 3.89547C83.6142 1.40515 80.2378 0.00423425 76.716 0Z" fill="black"/>
</svg>
